# xmcd
#
# Track frame offsets: 
#        182
#        13667
#        26335
#        37172
#        51212
#        63620
#        73725
#        88550
#        103660
#        123300
#
# Disc length: 1853 seconds
#
# Revision: 9
# Processed by: cddbd v1.5.2PL0 Copyright (c) Steve Scherf et al.
# Submitted via: ExactAudioCopy v1.0b3
#
DISCID=87073b0a
DTITLE=Shania Twain - Shania Twain
DYEAR=1993
DGENRE=Country
TTITLE0=What Made You Say That
TTITLE1=You Lay A Whole Lot Of Love On Me
TTITLE2=Dance With The One That Brought You
TTITLE3=Still Under The Weather
TTITLE4=God Ain't Gonna Getcha For That
TTITLE5=Got A Hold On Me
TTITLE6=There Goes The Neighborhood
TTITLE7=Forget Me
TTITLE8=When He Leaves You
TTITLE9=Crime Of The Century
EXTD=Produced by Harold Shedd and Norro Wilson\nMercury Records, a PolyG
EXTD=ram company
EXTT0=
EXTT1=
EXTT2=
EXTT3=
EXTT4=
EXTT5=
EXTT6=
EXTT7=
EXTT8=
EXTT9=
PLAYORDER=
